<?xml version="1.0" encoding="UTF-8"?>
<svg version="1.1" xmlns="http://www.w3.org/2000/svg" width="559" height="447">
<path d="M0 0 C0 0.66 0 1.32 0 2 C0.68835938 2.23589844 1.37671875 2.47179687 2.0859375 2.71484375 C5.58690171 4.25883467 8.55064414 6.3187178 11.625 8.5625 C12.5382605 9.22523926 12.5382605 9.22523926 13.4699707 9.90136719 C15.32191717 11.25641458 17.16331346 12.62435215 19 14 C19.82781982 14.6194751 19.82781982 14.6194751 20.67236328 15.25146484 C28.99022105 21.55084894 32.76531307 26.38318179 34.7890625 36.77734375 C34.9378183 37.50691788 35.0865741 38.236492 35.23983765 38.98817444 C35.70953774 41.30308956 36.16719164 43.62020739 36.625 45.9375 C36.93936747 47.48908174 37.25446518 49.04051571 37.5703125 50.59179688 C37.87305008 52.09101387 38.17515446 53.59035889 38.4765625 55.08984375 C38.61510651 55.77860092 38.75365051 56.46735809 38.89639282 57.17698669 C42.76878217 76.80258609 42.76878217 76.80258609 39.375 82.9375 C35.57573819 86.23685894 32.53710039 87.83531067 27.5 88.375 C23.48078944 87.9443703 21.30361375 87.34923644 18 85 C14.70119839 79.95885656 13.16843553 74.56116105 12.078125 68.703125 C11.92841248 67.9470697 11.77869995 67.1910144 11.62445068 66.41204834 C11.31336535 64.82995838 11.00777229 63.24677915 10.70751953 61.66259766 C10.24810302 59.2399968 9.77202827 56.82112944 9.29296875 54.40234375 C8.99122238 52.85695897 8.69040783 51.31139188 8.390625 49.765625 C8.25005676 49.0457843 8.10948853 48.3259436 7.96466064 47.58428955 C7.34494428 44.29852729 7 41.36126602 7 38 C6.278125 37.731875 5.55625 37.46375 4.8125 37.1875 C2.02409874 36.01017502 -0.44095724 34.60854116 -3 33 C-2.84909912 33.52585693 -2.69819824 34.05171387 -2.54272461 34.59350586 C-1.87396225 37.55886376 -1.59828824 40.47657374 -1.31640625 43.50390625 C-1.19491211 44.79119629 -1.07341797 46.07848633 -0.94824219 47.40478516 C-0.88552124 48.08277161 -0.82280029 48.76075806 -0.75817871 49.45928955 C-0.55984851 51.59099901 -0.35549497 53.72205406 -0.14941406 55.85302734 C0.97117416 67.46901406 0.97117416 67.46901406 1.39453125 72.97265625 C2.3201385 84.2370239 4.41402294 95.27850325 6.5 106.375 C6.65561401 107.20775452 6.81122803 108.04050903 6.97155762 108.89849854 C7.42224771 111.29565156 7.88124364 113.69103897 8.34375 116.0859375 C8.48020935 116.8091217 8.6166687 117.53230591 8.75726318 118.27740479 C9.8356167 123.76444073 11.20907701 128.24280488 14.625 132.6875 C17 135.78323699 17 135.78323699 17 138 C17.66 138 18.32 138 19 138 C19.58007812 139.10408203 19.58007812 139.10408203 20.171875 140.23046875 C20.69265625 141.20628906 21.2134375 142.18210937 21.75 143.1875 C22.26046875 144.15042969 22.7709375 145.11335937 23.296875 146.10546875 C24.98929643 148.98180884 26.89737383 151.41466977 29 154 C30.14917257 155.75524303 31.27401801 157.52663485 32.375 159.3125 C34.53906112 162.76756754 36.75666624 166.08729216 39.25 169.3125 C44.52629193 176.24906512 46.76374096 182.86665993 45.625 191.5625 C44.35674014 196.37688117 41.73870222 198.89220121 37.6953125 201.66796875 C32.85024582 204.06241475 28.34957898 204.73885287 23 204 C17.89338726 201.78038565 14.05169498 198.66785742 11 194 C11 193.34 11 192.68 11 192 C10.34 192 9.68 192 9 192 C9 191.01 9 190.02 9 189 C8.34 189 7.68 189 7 189 C7 187.68 7 186.36 7 185 C6.34 185 5.68 185 5 185 C3.625 183.12109375 3.625 183.12109375 2 180.4375 C-0.89665793 175.75226119 -3.87091276 171.1383407 -6.9375 166.5625 C-7.3588623 165.93118164 -7.78022461 165.29986328 -8.21435547 164.64941406 C-10.26950782 161.57259341 -12.33507039 158.50342097 -14.41796875 155.4453125 C-15.14628906 154.37023437 -15.87460937 153.29515625 -16.625 152.1875 C-17.27726562 151.23230469 -17.92953125 150.27710938 -18.6015625 149.29296875 C-20 147 -20 147 -20 145 C-20.66 145 -21.32 145 -22 145 C-22.53190541 143.56656 -23.05015258 142.12804633 -23.5625 140.6875 C-23.99755859 139.48673828 -23.99755859 139.48673828 -24.44140625 138.26171875 C-25 136 -25 136 -24 133 C-24.66 133 -25.32 133 -26 133 C-26.04898438 132.43152344 -26.09796875 131.86304688 -26.1484375 131.27734375 C-26.26058594 130.11912109 -26.26058594 130.11912109 -26.375 128.9375 C-26.44460938 128.18339844 -26.51421875 127.42929687 -26.5859375 126.65234375 C-27.1033144 123.33820304 -28.03386292 120.20867476 -29 117 C-29.57500244 117.7724707 -29.57500244 117.7724707 -30.16162109 118.56054688 C-31.89287103 120.87867009 -33.6337627 123.18937076 -35.375 125.5 C-35.97828125 126.31082031 -36.5815625 127.12164062 -37.203125 127.95703125 C-38.07324219 129.10751953 -38.07324219 129.10751953 -38.9609375 130.28125 C-39.49509277 130.99345703 -40.02924805 131.70566406 -40.57958984 132.43945312 C-41.28269287 133.21192383 -41.28269287 133.21192383 -42 134 C-42.66 134 -43.32 134 -44 134 C-44.28875 134.598125 -44.5775 135.19625 -44.875 135.8125 C-46 138 -46 138 -48 141 C-48.59187177 143.46377242 -49.10853453 145.88659667 -49.5625 148.375 C-49.68818359 149.035 -49.81386719 149.695 -49.94335938 150.375 C-50.2999019 152.24918164 -50.65010557 154.12456585 -51 156 C-51.16193848 156.77972168 -51.32387695 157.55944336 -51.49072266 158.36279297 C-52.03615809 161.18723856 -52.44412311 164.00908349 -52.83203125 166.859375 C-52.99123047 167.97570312 -53.15042969 169.09203125 -53.31445312 170.2421875 C-53.64408082 172.56380063 -53.96453528 174.88673637 -54.27539062 177.2109375 C-55.88761622 188.29897127 -58.43810602 195.56300213 -67.1875 202.8125 C-71.45798635 204.61559424 -75.43611318 204.67324417 -80 204 C-82.65196771 202.91382174 -84.62713135 201.65069124 -87 200 C-87 199.34 -87 198.68 -87 198 C-87.66 198 -88.32 198 -89 198 C-95.06146026 189.09723024 -93.01112456 180.70918023 -91.1875 170.5 C-91.00517822 169.44772217 -90.82285645 168.39544434 -90.63500977 167.3112793 C-90.26706235 165.19312167 -89.89594491 163.075512 -89.52148438 160.95849609 C-89.06082834 158.34509263 -88.61267027 155.73009198 -88.171875 153.11328125 C-85.50045753 137.35366419 -83.15843351 125.8833474 -72.95703125 113.4296875 C-71.29996251 111.37240854 -69.75385271 109.29464509 -68.25 107.125 C-66 104 -66 104 -64.109375 102.1484375 C-61.76546177 99.76111847 -59.92381387 97.23542285 -58 94.5 C-56.07393432 91.76137536 -54.26129458 89.25745201 -51.875 86.90625 C-49.90119667 84.89954995 -48.96531727 83.63420449 -48 81 C-48.14909545 78.02894755 -48.14909545 78.02894755 -48.828125 74.80859375 C-49.05113281 73.61685547 -49.27414063 72.42511719 -49.50390625 71.19726562 C-49.75011719 69.95654297 -49.99632812 68.71582031 -50.25 67.4375 C-50.48074219 66.19291016 -50.71148437 64.94832031 -50.94921875 63.66601562 C-52.08131865 56.98861112 -52.08131865 56.98861112 -55 51 C-55.73239033 52.14377553 -56.46065022 53.29019557 -57.1875 54.4375 C-57.65800781 55.16710937 -58.12851563 55.89671875 -58.61328125 56.6484375 C-60.03943856 58.93176055 -60.03943856 58.93176055 -60.91796875 61.2890625 C-63.92275557 68.42696426 -69.3285267 70.70379356 -76.125 73.5 C-77.41464365 74.00519505 -78.70622582 74.50547888 -80 75 C-81.0725 75.4125 -82.145 75.825 -83.25 76.25 C-85.03748338 76.91059168 -86.83094052 77.55551068 -88.6328125 78.17578125 C-90.28747476 78.75190953 -91.92017984 79.39334848 -93.53125 80.08203125 C-97.98466233 81.7379678 -102.5581167 81.85396675 -107.06640625 80.27734375 C-109.85220209 78.8408269 -111.74666741 77.39652058 -113.4375 74.75 C-114.48144655 69.64626132 -114.56498782 65.63218703 -112.875 60.75 C-108.64196179 54.54154395 -101.76105197 52.53148787 -95 50 C-94.23558594 49.69707031 -93.47117188 49.39414063 -92.68359375 49.08203125 C-89.65105277 47.89247098 -87.28701407 47 -84 47 C-83.79503906 46.37351563 -83.59007812 45.74703125 -83.37890625 45.1015625 C-83.10949219 44.28429687 -82.84007812 43.46703125 -82.5625 42.625 C-82.29566406 41.81289062 -82.02882812 41.00078125 -81.75390625 40.1640625 C-81 38 -81 38 -80 36 C-79.34 36 -78.68 36 -78 36 C-77.773125 35.175 -77.54625 34.35 -77.3125 33.5 C-75.95884778 29.89026076 -74.24339016 27.02492229 -72.12109375 23.83203125 C-70.83810114 21.89004926 -70.83810114 21.89004926 -70 19 C-69.34 19 -68.68 19 -68 19 C-67.62101562 17.9171875 -67.62101562 17.9171875 -67.234375 16.8125 C-62.71420001 6.51336711 -53.18065799 -1.58838154 -43 -6 C-28.01058364 -9.46576101 -13.36584691 -7.17795482 0 0 Z " fill="#000403" transform="translate(303,132)"/>
<path d="M0 0 C90.75 0 181.5 0 275 0 C275 11.55 275 23.1 275 35 C184.25 35 93.5 35 0 35 C0 23.45 0 11.9 0 0 Z " fill="#000403" transform="translate(142,343)"/>
<path d="M0 0 C4.85473039 3.73095021 7.21693012 9.04882133 9.1875 14.75 C9.96471049 22.06789101 9.26321387 28.08595329 6.1875 34.75 C5.5275 34.75 4.8675 34.75 4.1875 34.75 C3.960625 35.3275 3.73375 35.905 3.5 36.5 C0.23556648 42.09617175 -5.87847063 44.74803507 -11.8125 46.75 C-20.11021632 47.78721454 -28.02754021 44.31946271 -34.8125 39.75 C-36.25 37.5 -36.25 37.5 -36.8125 35.75 C-37.4725 35.75 -38.1325 35.75 -38.8125 35.75 C-42.4058714 27.31338889 -44.23477979 19.62159257 -40.7421875 10.84375 C-40.43539062 10.1528125 -40.12859375 9.461875 -39.8125 8.75 C-39.56757813 8.1209375 -39.32265625 7.491875 -39.0703125 6.84375 C-36.42725403 1.10453733 -31.40686898 -1.68124506 -25.8125 -4.25 C-16.50755815 -6.58679326 -8.04351775 -5.20766214 0 0 Z " fill="#010403" transform="translate(275.8125,74.25)"/>
</svg>
