<?xml version="1.0" encoding="utf-8"?>
<!DOCTYPE svg PUBLIC "-//W3C//DTD SVG 1.1//EN" "http://www.w3.org/Graphics/SVG/1.1/DTD/svg11.dtd">
<svg version="1.1" xmlns="http://www.w3.org/2000/svg" xmlns:xlink="http://www.w3.org/1999/xlink" x="0px" y="0px" viewBox="0 0 256 256" enable-background="new 0 0 256 256" xml:space="preserve">
<g><g><g><path fill="#000000" d="M142.7,10.3c-12.4,0.8-22.3,3-30.1,6.8c-4.9,2.4-6.3,3.4-10.3,7.4c-6.8,6.8-10,13.6-11.7,24.7c-0.7,4.6-0.8,17-0.8,84.8v79.4h-9.2h-9.2v16.3V246h28.8h28.8v-16.3v-16.3h-10h-10l0.2-81.3c0.1-76.5,0.2-81.5,1.1-84.4c2.8-9.4,7.5-13.6,17.9-16.1c7-1.6,14.5-2.3,31.9-2.7l16.1-0.3l1.9-1.5c2.4-1.8,3.7-4.5,3.7-7.8c0-4.2-2.7-7.8-6.9-9C172.8,10,150,9.8,142.7,10.3z"/><path fill="#000000" d="M141.9,35.3c0,5.2,5.3,12,10.5,13.8c6,2.1,12.9,0.6,17.1-3.5c2.8-2.8,4.9-6.9,4.9-9.8v-2h-16.3h-16.3V35.3z"/><path fill="#000000" d="M136.9,50.2c-5.9,3.4-6.6,4.1-6.1,5.5c0.5,1.4,1.9,0.9,7.8-2.4c6.5-3.7,7.3-4.5,6.9-5.6C144.9,46.2,142.9,46.8,136.9,50.2z"/><path fill="#000000" d="M170,47.5c-0.5,1.4,0.3,2.1,6.4,5.6c6.3,3.7,8,4.1,8.3,2.1c0.2-1-0.9-1.8-6-4.8C172.5,46.9,170.5,46.2,170,47.5z"/><path fill="#000000" d="M148.6,52.9c-0.3,0.4-2.1,3.4-4,6.6c-2.7,4.6-3.3,6.1-2.9,6.8c1.2,2,2.2,1.3,5.2-3.9c4.8-8.2,4.9-8.4,3.9-9.3C149.8,52.1,149.3,52,148.6,52.9z"/><path fill="#000000" d="M164.8,52.6c-1.3,0.5-0.7,2.4,2.7,8.3c3.4,6,4.1,6.7,5.5,6.2c1.4-0.5,0.9-2-2.3-7.7C166.5,52.1,166.4,52,164.8,52.6z"/><path fill="#000000" d="M156.6,55.2c-0.4,0.5-0.6,3.2-0.5,8.3l0.2,7.5h1.4h1.4l0.2-7.8c0.1-5.9-0.1-7.9-0.5-8.3C157.6,54.3,157.3,54.3,156.6,55.2z"/></g></g></g>
</svg>